<?xml version="1.0" encoding="utf-8"?>
<svg data-name="Layer 1" viewBox="0 0 120 120" xmlns="http://www.w3.org/2000/svg">
  <defs>
    <linearGradient gradientUnits="userSpaceOnUse" x1="60" y1="0" x2="60" y2="120" id="gradient-0" spreadMethod="pad">
      <stop offset="0" style="stop-color: rgba(255, 0, 0, 1)"/>
      <stop offset="1" style="stop-color: rgba(153, 0, 0, 1)"/>
    </linearGradient>
  </defs>
  <path fill-rule="evenodd" d="M120,26V94a25.94821,25.94821,0,0,1-26,26H26A25.94821,25.94821,0,0,1,0,94V26A25.94821,25.94821,0,0,1,26,0H94A25.94821,25.94821,0,0,1,120,26Z" style="fill: url(#gradient-0);"/>
  <path d="M 109.714 52.62 L 106.677 49.716 C 105.509 48.598 103.568 49.165 103.185 50.737 C 103.01 51.464 103.232 52.233 103.773 52.753 L 106.811 55.656 C 107.648 56.459 108.979 56.43 109.778 55.59 C 110.58 54.754 110.555 53.421 109.714 52.62 Z M 73.594 23.889 C 74.762 25.007 76.703 24.439 77.085 22.872 C 77.262 22.141 77.04 21.373 76.497 20.856 L 70.464 15.083 C 69.296 13.964 67.355 14.532 66.973 16.103 C 66.796 16.831 67.018 17.6 67.561 18.12 L 73.594 23.889 Z M 85.665 35.431 C 86.833 36.548 88.775 35.981 89.156 34.414 C 89.333 33.683 89.11 32.914 88.568 32.397 L 82.531 26.624 C 81.362 25.507 79.422 26.073 79.039 27.645 C 78.863 28.372 79.085 29.141 79.627 29.662 L 85.665 35.431 Z M 94.606 38.17 C 93.438 37.052 91.497 37.62 91.114 39.191 C 90.938 39.917 91.161 40.686 91.702 41.208 L 97.74 46.98 C 98.908 48.098 100.85 47.531 101.232 45.963 C 101.408 45.233 101.186 44.464 100.643 43.947 L 94.606 38.17 Z M 58.359 12.343 L 59.943 10.826 L 61.527 12.343 C 62.696 13.46 64.636 12.894 65.018 11.326 C 65.195 10.595 64.972 9.826 64.431 9.309 L 61.393 6.406 C 60.581 5.629 59.3 5.629 58.489 6.406 L 55.456 9.305 C 54.288 10.422 54.766 12.385 56.317 12.838 C 57.039 13.049 57.817 12.86 58.359 12.343 Z M 44.834 24.469 C 45.376 24.469 45.897 24.259 46.288 23.885 L 52.326 18.111 C 53.439 16.936 52.864 14.994 51.288 14.616 C 50.628 14.46 49.931 14.629 49.418 15.074 L 43.385 20.851 C 42.217 21.969 42.7 23.931 44.25 24.385 C 44.443 24.439 44.637 24.469 44.834 24.469 Z M 32.763 36.01 C 33.305 36.01 33.827 35.8 34.217 35.426 L 40.255 29.654 C 41.46 28.577 41.048 26.599 39.516 26.09 C 38.751 25.838 37.91 26.044 37.347 26.624 L 31.314 32.393 C 30.146 33.51 30.629 35.473 32.179 35.926 C 32.372 35.981 32.566 36.01 32.763 36.01 Z M 28.179 41.203 C 29.347 40.086 28.868 38.12 27.318 37.666 C 26.6 37.456 25.818 37.644 25.277 38.165 L 19.242 43.938 C 18.075 45.057 18.558 47.023 20.113 47.472 C 20.831 47.683 21.608 47.493 22.15 46.972 L 28.179 41.203 Z M 13.209 49.712 L 10.171 52.615 C 9.058 53.791 9.634 55.733 11.209 56.111 C 11.873 56.266 12.566 56.098 13.079 55.652 L 16.116 52.75 C 17.23 51.573 16.655 49.632 15.078 49.253 C 14.42 49.099 13.722 49.266 13.209 49.712 Z M 95.656 49.934 L 24.23 49.934 C 23.07 49.934 22.129 50.875 22.129 52.035 L 22.129 104.554 C 22.129 105.714 23.07 106.656 24.23 106.656 L 47.338 106.656 L 47.338 75.144 C 47.338 73.984 48.28 73.042 49.439 73.042 L 70.447 73.042 C 71.607 73.042 72.547 73.984 72.547 75.144 L 72.547 106.656 L 95.656 106.656 C 96.816 106.656 97.757 105.714 97.757 104.554 L 97.757 52.035 C 97.757 50.875 96.816 49.934 95.656 49.934 Z" style="fill: rgb(255, 255, 255);"/>
</svg>